<?xml version="1.0" encoding="UTF-8" standalone="no"?>
<!-- Created with Inkscape (http://www.inkscape.org/) -->

<svg
   xmlns:dc="http://purl.org/dc/elements/1.1/"
   xmlns:cc="http://creativecommons.org/ns#"
   xmlns:rdf="http://www.w3.org/1999/02/22-rdf-syntax-ns#"
   xmlns:svg="http://www.w3.org/2000/svg"
   xmlns="http://www.w3.org/2000/svg"
   xmlns:sodipodi="http://sodipodi.sourceforge.net/DTD/sodipodi-0.dtd"
   xmlns:inkscape="http://www.inkscape.org/namespaces/inkscape"
   id="svg2"
   version="1.1"
   inkscape:version="0.91 r13725"
   xml:space="preserve"
   width="765"
   height="990"
   viewBox="0 0 765 990"
   sodipodi:docname="Challenger_350_outline.svg"><metadata
     id="metadata8"><rdf:RDF><cc:Work
         rdf:about=""><dc:format>image/svg+xml</dc:format><dc:type
           rdf:resource="http://purl.org/dc/dcmitype/StillImage" /><dc:title></dc:title></cc:Work></rdf:RDF></metadata><defs
     id="defs6"><clipPath
       clipPathUnits="userSpaceOnUse"
       id="clipPath36"><path
         d="m 90,761.64 215.04,0 0,-23.76 -215.04,0 0,23.76 z"
         id="path38"
         inkscape:connector-curvature="0"
         style="clip-rule:evenodd" /></clipPath><clipPath
       clipPathUnits="userSpaceOnUse"
       id="clipPath44"><path
         d="m 0,792.03 612,0 0,-792 -612,0 0,792 z"
         id="path46"
         inkscape:connector-curvature="0" /></clipPath><clipPath
       clipPathUnits="userSpaceOnUse"
       id="clipPath56"><path
         d="m 91.56,758.16 205.92,0 0,-14.76 -205.92,0 0,14.76 z"
         id="path58"
         inkscape:connector-curvature="0"
         style="clip-rule:evenodd" /></clipPath><clipPath
       clipPathUnits="userSpaceOnUse"
       id="clipPath64"><path
         d="m 90,761.64 215.04,0 0,-23.76 -215.04,0 0,23.76 z"
         id="path66"
         inkscape:connector-curvature="0"
         style="clip-rule:evenodd" /></clipPath><clipPath
       clipPathUnits="userSpaceOnUse"
       id="clipPath72"><path
         d="m 0,792.03 612,0 0,-792 -612,0 0,792 z"
         id="path74"
         inkscape:connector-curvature="0" /></clipPath><clipPath
       clipPathUnits="userSpaceOnUse"
       id="clipPath144"><path
         d="m 84.36,674.82 462,0 0,-592.86 -462,0 0,592.86 z"
         id="path146"
         inkscape:connector-curvature="0"
         style="clip-rule:evenodd" /></clipPath><clipPath
       clipPathUnits="userSpaceOnUse"
       id="clipPath152"><path
         d="m 90,676.8 450.78,0 0,-612 -450.78,0 0,612 z"
         id="path154"
         inkscape:connector-curvature="0"
         style="clip-rule:evenodd" /></clipPath><clipPath
       clipPathUnits="userSpaceOnUse"
       id="clipPath160"><path
         d="m 0,792.03 612,0 0,-792 -612,0 0,792 z"
         id="path162"
         inkscape:connector-curvature="0" /></clipPath><clipPath
       clipPathUnits="userSpaceOnUse"
       id="clipPath170"><path
         d="m 90.36,662.82 450,0 0,-568.86 -450,0 0,568.86 z"
         id="path172"
         inkscape:connector-curvature="0"
         style="clip-rule:evenodd" /></clipPath><clipPath
       clipPathUnits="userSpaceOnUse"
       id="clipPath178"><path
         d="m 84.36,674.82 462,0 0,-592.86 -462,0 0,592.86 z"
         id="path180"
         inkscape:connector-curvature="0"
         style="clip-rule:evenodd" /></clipPath><clipPath
       clipPathUnits="userSpaceOnUse"
       id="clipPath186"><path
         d="m 90,676.8 450.78,0 0,-612 -450.78,0 0,612 z"
         id="path188"
         inkscape:connector-curvature="0"
         style="clip-rule:evenodd" /></clipPath><clipPath
       clipPathUnits="userSpaceOnUse"
       id="clipPath194"><path
         d="m 0,792.03 612,0 0,-792 -612,0 0,792 z"
         id="path196"
         inkscape:connector-curvature="0" /></clipPath><clipPath
       clipPathUnits="userSpaceOnUse"
       id="clipPath234"><path
         d="m 90.366,662.811 450.018,0 0,-568.823 -450.018,0 0,568.823 z"
         id="path236"
         inkscape:connector-curvature="0" /></clipPath><clipPath
       clipPathUnits="userSpaceOnUse"
       id="clipPath242"><path
         d="m 90.36,662.82 450,0 0,-568.86 -450,0 0,568.86 z"
         id="path244"
         inkscape:connector-curvature="0"
         style="clip-rule:evenodd" /></clipPath><clipPath
       clipPathUnits="userSpaceOnUse"
       id="clipPath250"><path
         d="m 84.36,674.82 462,0 0,-592.86 -462,0 0,592.86 z"
         id="path252"
         inkscape:connector-curvature="0"
         style="clip-rule:evenodd" /></clipPath><clipPath
       clipPathUnits="userSpaceOnUse"
       id="clipPath258"><path
         d="m 90,676.8 450.78,0 0,-612 -450.78,0 0,612 z"
         id="path260"
         inkscape:connector-curvature="0"
         style="clip-rule:evenodd" /></clipPath><clipPath
       clipPathUnits="userSpaceOnUse"
       id="clipPath266"><path
         d="m 0,792.03 612,0 0,-792 -612,0 0,792 z"
         id="path268"
         inkscape:connector-curvature="0" /></clipPath><clipPath
       clipPathUnits="userSpaceOnUse"
       id="clipPath826"><path
         d="m 90.36,662.82 450,0 0,-568.86 -450,0 0,568.86 z"
         id="path828"
         inkscape:connector-curvature="0"
         style="clip-rule:evenodd" /></clipPath><clipPath
       clipPathUnits="userSpaceOnUse"
       id="clipPath834"><path
         d="m 84.36,674.82 462,0 0,-592.86 -462,0 0,592.86 z"
         id="path836"
         inkscape:connector-curvature="0"
         style="clip-rule:evenodd" /></clipPath><clipPath
       clipPathUnits="userSpaceOnUse"
       id="clipPath842"><path
         d="m 90,676.8 450.78,0 0,-612 -450.78,0 0,612 z"
         id="path844"
         inkscape:connector-curvature="0"
         style="clip-rule:evenodd" /></clipPath><clipPath
       clipPathUnits="userSpaceOnUse"
       id="clipPath850"><path
         d="m 0,792.03 612,0 0,-792 -612,0 0,792 z"
         id="path852"
         inkscape:connector-curvature="0" /></clipPath></defs><sodipodi:namedview
     pagecolor="#ffffff"
     bordercolor="#666666"
     borderopacity="1"
     objecttolerance="10"
     gridtolerance="10"
     guidetolerance="10"
     inkscape:pageopacity="0"
     inkscape:pageshadow="2"
     inkscape:window-width="1920"
     inkscape:window-height="1054"
     id="namedview4"
     showgrid="false"
     inkscape:zoom="1.4467349"
     inkscape:cx="410.03552"
     inkscape:cy="826.73082"
     inkscape:window-x="0"
     inkscape:window-y="0"
     inkscape:window-maximized="1"
     inkscape:current-layer="g10" /><g
     id="g10"
     inkscape:groupmode="layer"
     inkscape:label="Challenger 350 Pilot Training Guide"
     transform="matrix(1.25,0,0,-1.25,0,990)"><g
       id="g8357"><g
         transform="translate(91.239935,-153.1725)"
         id="g32"><g
           clip-path="url(#clipPath36)"
           id="g34"><g
             id="g40"><g
               clip-path="url(#clipPath44)"
               id="g42"><path
                 inkscape:connector-curvature="0"
                 id="path48"
                 style="fill:#ffffff;fill-opacity:1;fill-rule:nonzero;stroke:none"
                 d="m 90,737.88 215.04,0 0,23.76 -215.04,0 0,-23.76 z" /><path
                 inkscape:connector-curvature="0"
                 id="path50"
                 style="fill:#ffffff;fill-opacity:1;fill-rule:nonzero;stroke:none"
                 d="m 91.56,743.4 205.92,0 0,14.76 -205.92,0 0,-14.76 z" /></g></g></g></g><g
         transform="translate(91.239935,-153.1725)"
         id="g52"><g
           clip-path="url(#clipPath56)"
           id="g54"><g
             id="g60"><g
               clip-path="url(#clipPath64)"
               id="g62"><g
                 id="g68"><g
                   clip-path="url(#clipPath72)"
                   id="g70"><g
                     transform="translate(109.991,753.96)"
                     id="g76"><path
                       inkscape:connector-curvature="0"
                       id="path78"
                       style="fill:#231f20;fill-opacity:1;fill-rule:evenodd;stroke:none"
                       d="m 0,0 -3.135,-1.068 c -1.099,1.638 -2.729,2.459 -4.886,2.459 -1.579,0 -2.985,-0.426 -4.218,-1.278 -1.234,-0.849 -2.038,-1.939 -2.417,-3.265 -0.385,-1.35 -0.193,-2.453 0.578,-3.305 0.783,-0.849 2.019,-1.275 3.704,-1.275 2.109,0 4.143,0.846 6.098,2.533 l 2.206,-1.502 c -1.425,-1.275 -2.852,-2.207 -4.281,-2.797 -1.413,-0.574 -2.957,-0.863 -4.63,-0.863 -2.229,0 -4.068,0.582 -5.515,1.748 -0.7,0.561 -1.166,1.326 -1.399,2.287 -0.228,0.979 -0.18,2.035 0.145,3.174 0.57,2.002 1.777,3.646 3.618,4.937 2.123,1.488 4.492,2.234 7.109,2.234 C -3.617,4.019 -1.276,2.678 0,0" /></g><g
                     transform="translate(125.09,743.976)"
                     id="g80"><path
                       inkscape:connector-curvature="0"
                       id="path82"
                       style="fill:#231f20;fill-opacity:1;fill-rule:evenodd;stroke:none"
                       d="m 0,0 -3.112,0 1.665,5.835 -9.248,0 L -12.36,0 l -3.112,0 3.87,13.571 3.112,0 -1.413,-4.956 9.247,0 1.413,4.956 3.112,0" /></g><g
                     transform="translate(140.054,749.513)"
                     id="g84"><path
                       inkscape:connector-curvature="0"
                       id="path86"
                       style="fill:#231f20;fill-opacity:1;fill-rule:evenodd;stroke:none"
                       d="M 0,0 -1.222,5.574 -5.623,0 0,0 Z m 4.344,-5.537 -3.147,0 -0.633,2.928 -8.204,0 -2.302,-2.928 -3.148,0 10.683,13.59 3.837,0" /></g><g
                     transform="translate(159.27,743.976)"
                     id="g88"><path
                       inkscape:connector-curvature="0"
                       id="path90"
                       style="fill:#231f20;fill-opacity:1;fill-rule:evenodd;stroke:none"
                       d="m 0,0 -12.962,0 3.876,13.59 3.111,0 -3.13,-10.983 9.847,0" /></g><g
                     transform="translate(174.546,743.976)"
                     id="g92"><path
                       inkscape:connector-curvature="0"
                       id="path94"
                       style="fill:#231f20;fill-opacity:1;fill-rule:evenodd;stroke:none"
                       d="m 0,0 -12.962,0 3.876,13.59 3.111,0 -3.13,-10.983 9.849,0" /></g><g
                     transform="translate(191.061,743.976)"
                     id="g96"><path
                       inkscape:connector-curvature="0"
                       id="path98"
                       style="fill:#231f20;fill-opacity:1;fill-rule:evenodd;stroke:none"
                       d="m 0,0 -14.377,0 3.876,13.59 13.879,0 -0.744,-2.61 -10.766,0 -0.795,-2.779 7.481,0 -0.742,-2.61 -7.481,0 -0.852,-2.984 11.263,0" /></g><g
                     transform="translate(209.218,743.976)"
                     id="g100"><path
                       inkscape:connector-curvature="0"
                       id="path102"
                       style="fill:#231f20;fill-opacity:1;fill-rule:evenodd;stroke:none"
                       d="m 0,0 -3.643,0 -5.914,9.703 -0.052,0 -2.767,-9.703 -3.114,0 3.877,13.59 3.625,0 5.908,-9.723 0.072,0 2.774,9.723 3.109,0" /></g><g
                     transform="translate(231.124,750.919)"
                     id="g104"><path
                       inkscape:connector-curvature="0"
                       id="path106"
                       style="fill:#231f20;fill-opacity:1;fill-rule:evenodd;stroke:none"
                       d="m 0,0 c -0.594,-2.087 -1.846,-3.791 -3.752,-5.105 -2.156,-1.488 -4.605,-2.234 -7.338,-2.234 -2.63,0 -4.577,0.752 -5.847,2.254 -1.105,1.3 -1.369,2.953 -0.798,4.954 0.564,1.977 1.775,3.617 3.63,4.92 2.156,1.514 4.529,2.271 7.121,2.271 3.359,0 5.539,-1.078 6.539,-3.23 L -4.021,2.629 c -0.723,1.189 -1.967,1.783 -3.737,1.783 -1.648,0 -3.123,-0.432 -4.418,-1.295 -1.296,-0.863 -2.13,-1.947 -2.501,-3.248 -0.404,-1.426 -0.109,-2.577 0.891,-3.452 0.838,-0.739 1.989,-1.108 3.452,-1.108 1.271,0 2.492,0.27 3.658,0.809 1.125,0.511 2.03,1.193 2.707,2.045 l -6.207,0 0.75,2.626 9.655,0" /></g><g
                     transform="translate(245.925,743.976)"
                     id="g108"><path
                       inkscape:connector-curvature="0"
                       id="path110"
                       style="fill:#231f20;fill-opacity:1;fill-rule:evenodd;stroke:none"
                       d="m 0,0 -14.376,0 3.876,13.59 13.879,0 -0.742,-2.61 -10.768,0 -0.793,-2.779 7.481,0 -0.746,-2.61 -7.479,0 -0.852,-2.984 11.264,0" /></g><g
                     transform="translate(260.328,751.39)"
                     id="g112"><path
                       inkscape:connector-curvature="0"
                       id="path114"
                       style="fill:#231f20;fill-opacity:1;fill-rule:evenodd;stroke:none"
                       d="M 0,0 C 0.66,0 1.219,0.162 1.68,0.486 2.137,0.812 2.445,1.258 2.605,1.82 2.756,2.346 2.688,2.766 2.398,3.078 2.113,3.404 1.65,3.566 0.998,3.566 l -7.018,0 L -7.037,0 0,0 Z m 3.385,-7.414 -3.5,0 -1.778,4.805 -5.888,0 -1.371,-4.805 -3.111,0 3.876,13.59 10.485,0 c 1.449,0 2.5,-0.412 3.148,-1.24 C 5.896,4.123 6.033,3.055 5.654,1.727 5.039,-0.439 3.676,-1.803 1.572,-2.365" /></g><g
                     transform="translate(295.485,753.974)"
                     id="g116"><path
                       inkscape:connector-curvature="0"
                       id="path118"
                       style="fill:#231f20;fill-opacity:1;fill-rule:evenodd;stroke:none"
                       d="M 0,0 C 0.19,0.658 0.144,1.199 -0.145,1.622 -0.432,2.046 -0.894,2.256 -1.535,2.256 -2.182,2.256 -2.769,2.046 -3.3,1.622 -3.828,1.209 -4.187,0.666 -4.379,0 -4.567,-0.654 -4.52,-1.189 -4.23,-1.606 c 0.288,-0.416 0.752,-0.628 1.395,-0.628 0.645,0 1.234,0.212 1.761,0.628 C -0.543,-1.184 -0.186,-0.65 0,0 M 1.466,0 C 1.248,-0.75 0.838,-1.43 0.228,-2.041 -0.261,-2.535 -0.806,-2.917 -1.41,-3.186 c -0.594,-0.268 -1.197,-0.401 -1.808,-0.401 -1.261,0 -2.117,0.518 -2.563,1.556 -0.257,0.603 -0.279,1.281 -0.063,2.031 0.212,0.742 0.625,1.417 1.236,2.026 0.497,0.501 1.043,0.883 1.638,1.154 0.605,0.276 1.208,0.412 1.812,0.412 0.603,0 1.125,-0.136 1.561,-0.412 C 0.853,2.909 1.182,2.529 1.394,2.036 1.655,1.419 1.679,0.742 1.466,0" /></g><g
                     transform="translate(280.104,752.544)"
                     id="g120"><path
                       inkscape:connector-curvature="0"
                       id="path122"
                       style="fill:#231f20;fill-opacity:1;fill-rule:nonzero;stroke:none"
                       d="m 0,0 c -0.352,-1.326 -1.906,-2.128 -4.365,-2.124 -1.674,0.002 -2.866,0.459 -3.824,1.511 l 1.267,0.909 c 0.653,-0.798 1.583,-1.131 2.938,-1.131 1.382,-0.002 2.173,0.317 2.329,0.906 0.155,0.587 -0.533,0.739 -1.994,0.741 l -1.257,10e-4 0.345,1.298 1.511,0 c 1.077,-0.005 1.663,0.223 1.793,0.714 0.116,0.446 -0.506,0.76 -1.752,0.764 -0.934,0 -1.843,-0.197 -2.809,-0.614 L -6.224,3.998 C -4.965,4.65 -3.771,4.923 -2.466,4.923 -0.325,4.918 0.727,4.111 0.424,2.966 0.259,2.341 -0.109,1.926 -0.822,1.565 L -0.83,1.538 C -0.088,1.216 0.187,0.713 0,0" /></g><g
                     transform="translate(283.165,754.756)"
                     id="g124"><path
                       inkscape:connector-curvature="0"
                       id="path126"
                       style="fill:#231f20;fill-opacity:1;fill-rule:evenodd;stroke:none"
                       d="M 0,0 C 0.647,0.259 1.399,0.39 2.255,0.39 3.302,0.39 4.066,0.172 4.554,-0.263 5.041,-0.697 5.186,-1.261 4.989,-1.957 4.784,-2.677 4.308,-3.266 3.561,-3.719 2.813,-4.166 1.923,-4.391 0.885,-4.391 c -1.525,0 -2.692,0.522 -3.514,1.569 l 1.383,0.797 c 0.623,-0.689 1.454,-1.031 2.491,-1.031 0.623,0 1.127,0.092 1.511,0.282 0.391,0.194 0.637,0.467 0.738,0.817 0.198,0.701 -0.434,1.052 -1.901,1.052 -0.856,0 -1.629,-0.16 -2.318,-0.478 l -1.048,0.663 2.064,3.485 5.549,0 -0.387,-1.354 -4.539,0" /></g></g></g></g></g></g></g><path
         d="m 231.874,555.002 0,4.056 0.065,0.429 0.185,0.387 0.261,0.295 0.242,0.176 0.412,0.169 0.453,0.062 1.848,0 0.453,-0.062 0.412,-0.169 0.315,-0.242 0.347,-0.541 0.09,-0.504 0,-4.056 -0.066,-0.45 -0.184,-0.409 -0.26,-0.315 -0.242,-0.187 -0.412,-0.184 -0.453,-0.064 -1.848,0 -0.453,0.064 -0.412,0.184 -0.315,0.261 -0.347,0.572 -0.091,0.528"
         style="fill:none;stroke:#231f20;stroke-width:0.72000003;stroke-linecap:butt;stroke-linejoin:miter;stroke-miterlimit:4;stroke-dasharray:none;stroke-opacity:1"
         id="path204"
         inkscape:connector-curvature="0" /><path
         d="m 217.09,555.002 0,4.056 0.064,0.429 0.187,0.387 0.26,0.295 0.243,0.176 0.411,0.169 0.453,0.062 1.846,0 0.453,-0.062 0.413,-0.169 0.315,-0.242 0.348,-0.541 0.089,-0.504 0,-4.056 -0.063,-0.45 -0.187,-0.409 -0.262,-0.315 -0.24,-0.187 -0.413,-0.184 -0.453,-0.064 -1.846,0 -0.453,0.064 -0.411,0.184 -0.317,0.261 -0.346,0.572 -0.091,0.528"
         style="fill:none;stroke:#231f20;stroke-width:0.72000003;stroke-linecap:butt;stroke-linejoin:miter;stroke-miterlimit:4;stroke-dasharray:none;stroke-opacity:1"
         id="path208"
         inkscape:connector-curvature="0" /><path
         d="m 246.657,555.002 0,4.056 0.064,0.429 0.187,0.387 0.262,0.295 0.241,0.176 0.413,0.169 0.451,0.062 1.848,0 0.453,-0.062 0.41,-0.169 0.316,-0.242 0.348,-0.541 0.09,-0.504 0,-4.056 -0.064,-0.45 -0.185,-0.409 -0.262,-0.315 -0.243,-0.187 -0.41,-0.184 -0.453,-0.064 -1.848,0 -0.451,0.064 -0.413,0.184 -0.317,0.261 -0.347,0.572 -0.09,0.528"
         style="fill:none;stroke:#231f20;stroke-width:0.72000003;stroke-linecap:butt;stroke-linejoin:miter;stroke-miterlimit:4;stroke-dasharray:none;stroke-opacity:1"
         id="path212"
         inkscape:connector-curvature="0" /><path
         d="m 261.443,555.002 0,4.056 0.066,0.429 0.184,0.387 0.261,0.295 0.243,0.176 0.409,0.169 0.455,0.062 1.847,0 0.452,-0.062 0.41,-0.169 0.316,-0.242 0.347,-0.541 0.091,-0.504 0,-4.056 -0.063,-0.45 -0.188,-0.409 -0.261,-0.315 -0.242,-0.187 -0.41,-0.184 -0.452,-0.064 -1.847,0 -0.455,0.064 -0.409,0.184 -0.317,0.261 -0.347,0.572 -0.09,0.528"
         style="fill:none;stroke:#231f20;stroke-width:0.72000003;stroke-linecap:butt;stroke-linejoin:miter;stroke-miterlimit:4;stroke-dasharray:none;stroke-opacity:1"
         id="path216"
         inkscape:connector-curvature="0" /><path
         d="m 292.486,555.002 0,4.056 0.066,0.429 0.186,0.387 0.262,0.295 0.24,0.176 0.411,0.169 0.452,0.062 1.848,0 0.454,-0.062 0.41,-0.169 0.317,-0.242 0.347,-0.541 0.09,-0.504 0,-4.056 -0.065,-0.45 -0.184,-0.409 -0.262,-0.315 -0.243,-0.187 -0.41,-0.184 -0.454,-0.064 -1.848,0 -0.452,0.064 -0.411,0.184 -0.314,0.261 -0.349,0.572 -0.091,0.528"
         style="fill:none;stroke:#231f20;stroke-width:0.72000003;stroke-linecap:butt;stroke-linejoin:miter;stroke-miterlimit:4;stroke-dasharray:none;stroke-opacity:1"
         id="path220"
         inkscape:connector-curvature="0" /><path
         d="m 276.966,555.002 0,4.056 0.063,0.429 0.185,0.387 0.122,0.155 0.14,0.14 0.243,0.176 0.41,0.169 0.453,0.062 1.847,0 0.454,-0.062 0.41,-0.169 0.317,-0.242 0.348,-0.541 0.088,-0.504 0,-4.056 -0.065,-0.45 -0.184,-0.409 -0.262,-0.315 -0.242,-0.187 -0.41,-0.184 -0.454,-0.064 -1.847,0 -0.453,0.064 -0.41,0.184 -0.316,0.261 -0.35,0.572 -0.087,0.528"
         style="fill:none;stroke:#231f20;stroke-width:0.72000003;stroke-linecap:butt;stroke-linejoin:miter;stroke-miterlimit:4;stroke-dasharray:none;stroke-opacity:1"
         id="path224"
         inkscape:connector-curvature="0" /><path
         d="m 129.618,535.413 -0.558,-3.82 18.083,-3.528 0.063,0.519 0.156,1.233 0.187,1.472 0.156,1.233 0.043,0.322 0.876,-0.101 c 1.705,-0.169 3.412,-0.325 5.121,-0.445 l 0.749,-0.059 0.512,-0.87 1.067,-1.793 1.279,-2.132 1.075,-1.786 0.569,-0.928 0.011,-0.497 0.003,-1.567 -0.003,-1.867 -0.005,-1.564 -0.006,-0.635 -0.484,-0.258 -0.511,-0.387 c -2.704,-2.453 -1.183,-6.859 2.457,-7.128 l 0.64,0.012 0.632,0.111 0.604,0.209 c 1.2,0.523 2.071,1.581 2.357,2.859 l 0.089,0.636 -0.012,0.638 -0.111,0.632 -0.178,0.518 0.002,0.023 0.035,0.258 0.034,0.207 0.027,0.142 0.011,0.048 0.891,1.057 0.104,0.12 -0.396,0.224 -0.943,0.537 -1.125,0.639 -0.94,0.541 -0.303,0.176 0.011,0.534 0,1.124 -0.003,1.334 -0.005,1.118 -0.003,0.466 2.621,0 -0.358,0.661 -0.852,1.572 -1.014,1.887 -0.853,1.596 -0.359,0.705 0.002,0.052 0.007,0.041 0.016,0.033 0.026,0.029 0.04,0.027 0.614,0.02 1.393,0.002 1.649,-0.007 2.04,-0.015 42.063,-0.189 10.566,-0.054 3.649,-0.023 1.202,-0.213 0.657,-0.113 0.809,-0.143 0.9,-0.17 1.089,-0.215 1.399,-0.283 3.638,-0.756 2.19,-0.464 2.369,-0.521 2.491,-0.571 2.588,-0.589 2.666,-0.579 2.724,-0.543 2.895,-0.509 c 8.923,-1.591 18.005,-2.236 27.063,-2.193 l 3.095,0.026 3.107,0.051 c 5.677,-1.056 12.036,-1.567 17.789,-1.901 l 1.923,-0.091 1.366,-0.057 0.527,-0.029 0.011,-0.017 0,-0.013 -0.003,-0.017 -0.006,-0.018 -0.002,-0.026 0.029,-0.659 0.067,-1.528 0.175,-3.964 0.098,-0.066 0.246,-0.154 0.324,-0.175 0.33,-0.129 0.268,-0.019 0.168,0.093 0.105,0.146 0.086,0.193 c 0.197,0.516 1.018,1.34 1.371,1.762 l 0.371,0.341 0.249,0.089 0.071,-0.17 -0.007,-0.022 c -1.464,-4.967 3.627,-9.179 8.235,-6.82 l 0.767,0.489 0.68,0.598 0.58,0.7 c 1.061,1.512 1.344,3.455 0.742,5.203 l -0.359,0.83 -0.486,0.767 -0.6,0.682 -1.977,1.634 -0.014,0.012 -0.219,0.167 -0.012,0.022 -0.002,0.02 -0.002,0.018 0.004,0.014 0.012,0.017 0.592,0 1.392,-0.025 1.656,-0.027 1.386,-0.028 0.579,-0.011 -0.09,0 0.824,-0.02 6.285,-0.145 0.846,-0.015 0.023,-0.004 c 1.529,0.156 3.063,0.366 4.592,0.53 l 2.438,0.286 0.337,0.202 c 2.136,1.191 4.058,2.407 6.531,2.737 l 0.914,0.135 0.646,0.071 0.248,0.021 0.397,0.224 c 1.342,0.685 3.533,2.144 4.961,2.428 l 0.267,0.033 0.325,0.037 c 2.453,0.454 4.912,0.966 7.341,1.531 l 2.411,0.573 2.957,0.729 3.284,0.83 3.377,0.88 3.248,0.876 3.228,0.912 3.207,0.944 2.787,0.84 1.967,0.602 0.742,0.229 9.947,2.025 1.175,0.237 0.049,0 0.018,-0.002 0.021,0.002 1.571,0.335 4.033,0.871 5.57,1.21 6.184,1.352 5.878,1.297 5.867,1.314 6.172,1.398 5.553,1.265 c 4.066,0.894 8.054,1.843 12.057,2.985 l 1.446,0.455 0.865,0.334 c 1.061,0.434 2.153,1.022 3.086,1.69 l 0.343,0.258 0.231,0.18 0.086,0.07 0.092,7.235 -0.221,0.106 c -2.394,1.159 -3.762,1.542 -6.412,1.773 l -0.238,0.02 9.492,13.477 17.718,25.054 c 2.036,0.606 3.186,1.543 5.154,0.992 l 0.812,-0.035 1.375,-0.041 1.756,-0.031 1.951,-0.009 1.969,0.029 2.081,0.073 2.209,0.113 2.028,0.128 1.535,0.127 0.736,0.1 0.213,0.101 0.176,0.118 0.131,0.115 0.084,0.084 0.029,0.034 -7.595,2.443 0.318,0.113 2.437,0.86 0.318,0.113 -0.09,3.709 -0.123,0.053 -0.343,0.148 c -5.168,1.899 -12.12,3.027 -17.484,4.417 l -3.836,0.806 -2.732,0.52 c -4.541,0.854 -8.983,1.361 -13.609,1.375 l -1.197,0.006 -0.451,0 0.027,0.002 0.217,0 0.026,-0.002 -0.561,0.005 -1.426,0 -1.894,-0.03 c -4.165,-0.026 -7.206,-0.766 -10.845,-2.691 l -0.711,-0.463 -0.834,-0.62 c -4.969,-3.399 -6.082,-9.673 -10.125,-13.839 l -1.541,-1.408 -3.812,-3.468 -4.866,-4.392 -4.71,-4.182 c -5.324,-4.223 -9.269,-9.022 -16.441,-9.61 l -1.445,-0.186 -1.405,-0.142 c -3.543,-0.065 -9.436,-0.133 -12.69,-1.348 l -0.432,-0.201 -0.287,-0.15 -0.103,-0.056 -0.03,-0.327 -0.056,-0.802 c 0.013,-2.134 -0.35,-3.126 2.158,-3.032 l 0.189,0 0.028,-0.017 c 0.122,-0.103 0.346,-0.68 0.425,-0.794 l 0.125,-0.258 0.055,-0.108 -0.365,0.059 -0.998,0.15 -1.494,0.213 -1.854,0.242 c -7.603,0.878 -15.319,1.45 -22.954,1.961 l -4.66,0.256 -4.385,0.192 c -7.256,0.258 -14.521,0.491 -21.78,0.638 l -117.25,-0.092 -2.02,0.02 -5.007,0.03 c -13.414,0 -28.823,0.891 -41.066,-5.929 l -2.306,-1.472 -3.388,-2.308 -3.558,-2.48 -2.807,-1.977 -1.139,-0.808 c -3.651,-1.362 -6.982,-3.429 -10.433,-5.208 l -5.122,-2.795 -4.612,-2.579 c -2.761,-1.567 -5.741,-3.435 -7.925,-5.797 l -0.18,-0.216 -0.128,-0.191 -0.092,-0.214 c -1.22,-3.83 5.598,-4.806 7.922,-5.628 l 0.962,-0.235 1.018,-0.246 1.157,-0.295"
         style="fill:none;stroke:#231f20;stroke-width:0.72000003;stroke-linecap:butt;stroke-linejoin:miter;stroke-miterlimit:4;stroke-dasharray:none;stroke-opacity:1"
         id="path228"
         inkscape:connector-curvature="0" /><path
         d="m 135.737,534.602 c 4.377,-0.951 8.749,-1.56 12.601,-1.8"
         style="fill:none;stroke:#231f20;stroke-width:0.72000003;stroke-linecap:butt;stroke-linejoin:miter;stroke-miterlimit:4;stroke-dasharray:none;stroke-opacity:1"
         id="path272"
         inkscape:connector-curvature="0" /><path
         d="m 129.71,535.579 0,14.08"
         style="fill:none;stroke:#231f20;stroke-width:0.72000003;stroke-linecap:butt;stroke-linejoin:miter;stroke-miterlimit:4;stroke-dasharray:none;stroke-opacity:1"
         id="path276"
         inkscape:connector-curvature="0" /><path
         d="m 160.078,567.474 5.028,-0.304 5.012,-0.487 4.991,-0.667 0,-5.696 -9.764,-0.199 -9.886,-0.745 -9.827,-1.291"
         style="fill:none;stroke:#231f20;stroke-width:0.72000003;stroke-linecap:butt;stroke-linejoin:miter;stroke-miterlimit:4;stroke-dasharray:none;stroke-opacity:1"
         id="path280"
         inkscape:connector-curvature="0" /><path
         d="m 201.44,567.687 c -0.188,0.306 -0.224,0.693 -0.493,0.949 -0.254,0.24 -0.611,0.32 -0.942,0.404 -0.329,0.065 -0.658,0.148 -0.995,0.141 -2.75,0.025 -5.502,0.074 -8.252,0.037 -0.493,-0.019 -0.993,-0.007 -1.478,-0.117 -0.431,-0.084 -0.881,-0.185 -1.243,-0.448 -0.174,-0.115 -0.287,-0.297 -0.377,-0.482 -0.074,-0.136 -0.077,-0.299 -0.095,-0.451 -0.04,-5.916 -0.02,-11.831 -0.027,-17.747 0.01,-4.66 -0.009,-9.318 0.027,-13.977 0.021,-0.145 0.034,-0.295 0.122,-0.418 0.097,-0.184 0.253,-0.327 0.426,-0.434 0.332,-0.192 0.711,-0.28 1.08,-0.372 0.154,-0.04 0.316,-0.054 0.474,-0.044 2.798,-0.02 5.596,-0.027 8.393,-0.018 0.661,0.01 1.333,-0.02 1.987,0.103 0.211,0.058 0.432,0.089 0.629,0.185 0.31,0.177 0.467,0.518 0.642,0.813 0.036,0.066 0.07,0.134 0.11,0.197 l 0.004,0.019 c 0.005,1.771 -0.017,3.545 -0.017,5.316 -0.029,8.857 -0.06,17.713 -0.089,26.571"
         style="fill:none;stroke:#231f20;stroke-width:0.72000003;stroke-linecap:butt;stroke-linejoin:miter;stroke-miterlimit:4;stroke-dasharray:none;stroke-opacity:1"
         id="path284"
         inkscape:connector-curvature="0" /><path
         d="m 224.232,531.131 c -0.953,0.364 -1.944,0.619 -2.876,1.031 -0.386,0.178 -0.729,0.484 -0.897,0.88 -0.097,0.247 -0.058,0.553 0.144,0.735 0.212,0.196 0.422,0.395 0.606,0.621 0.348,0.374 0.851,0.541 1.308,0.737 2.486,0.981 5.05,1.744 7.646,2.376 3.254,0.798 6.559,1.375 9.879,1.827 4.764,0.605 9.563,0.897 14.356,1.192 0.729,0.029 1.458,0.105 2.188,0.113 7.293,-0.025 14.584,-0.042 21.876,-0.066 12.868,-0.035 25.737,-0.086 38.605,-0.112 1.732,-0.007 3.461,-0.102 5.189,-0.144 9.695,-0.3 19.388,-0.6 29.081,-0.899 0.455,-0.04 0.91,-0.102 1.358,-0.177 0.224,-0.012 0.447,-0.025 0.669,-0.036 0.215,0.043 0.43,0.085 0.647,0.129 0.156,0.104 0.314,0.206 0.471,0.31 0.123,0.147 0.244,0.295 0.367,0.444 0.211,0.337 0.435,0.663 0.678,0.98 3.605,4.109 7.211,8.216 10.87,12.28 0.912,0.99 1.799,2.007 2.779,2.929 0.146,0.111 0.336,0.136 0.514,0.166 0.267,0.025 0.527,-0.066 0.797,-0.067 0.791,-0.041 1.585,-0.088 2.363,-0.246 0.197,-0.042 0.4,-0.159 0.49,-0.348 0.059,-0.111 0.025,-0.234 -0.033,-0.334 -1.779,-4.419 -3.602,-8.818 -5.397,-13.232 -0.355,-0.872 -0.718,-1.743 -1.066,-2.619 0,-0.153 0.062,-0.302 0.082,-0.454 0.135,-0.58 0.227,-1.174 0.439,-1.732 0.12,-0.302 0.278,-0.612 0.219,-0.946 0.002,-0.181 -0.09,-0.351 -0.23,-0.463 -0.09,-0.041 -0.192,-0.045 -0.285,-0.07 -1.254,-0.206 -2.524,-0.278 -3.788,-0.399 -4.219,-0.35 -8.446,-0.626 -12.674,-0.782 -1.264,-0.035 -2.534,-0.103 -3.795,-0.026 -0.344,0.015 -0.68,0.091 -1.002,0.207 -0.313,0.113 -0.662,0.227 -0.871,0.498 -0.159,0.222 -0.002,0.495 0.158,0.664 0.182,0.201 0.39,0.396 0.664,0.457 0.478,0.16 0.996,0.111 1.494,0.142 1.57,0.035 3.147,0.005 4.717,0.037 0.041,0.016 0.055,0.062 0.084,0.091 0.609,0.693 1.209,1.391 1.812,2.086 l 0.049,0.056"
         style="fill:none;stroke:#231f20;stroke-width:0.72000003;stroke-linecap:butt;stroke-linejoin:miter;stroke-miterlimit:4;stroke-dasharray:none;stroke-opacity:1"
         id="path288"
         inkscape:connector-curvature="0" /><path
         d="m 274.268,525.027 9.102,-0.356 9.107,0.235 9.071,0.823 -27.28,-0.702 -5.929,0.265 -5.847,1.036 -5.661,1.792 -0.436,0.238 -0.392,0.302 -0.34,0.362 -0.275,0.412 -0.209,0.45 -0.132,0.478 -0.057,0.492 c -0.034,1.196 0.607,2.286 1.665,2.843 l 0.456,0.192 5.638,1.589 5.824,0.569 5.835,-0.471 23.679,-0.463 23.677,0.327 23.655,1.123"
         style="fill:none;stroke:#231f20;stroke-width:0.72000003;stroke-linecap:butt;stroke-linejoin:miter;stroke-miterlimit:4;stroke-dasharray:none;stroke-opacity:1"
         id="path292"
         inkscape:connector-curvature="0" /><path
         d="m 317.055,521.668 -7.64,1.926 -7.544,2.263 -7.439,2.593 19.981,0.529"
         style="fill:none;stroke:#231f20;stroke-width:0.72000003;stroke-linecap:butt;stroke-linejoin:miter;stroke-miterlimit:4;stroke-dasharray:none;stroke-opacity:1"
         id="path296"
         inkscape:connector-curvature="0" /><path
         d="m 310.278,530.741 c 10.71,-4.208 21.741,-6.23 31.948,-6.252"
         style="fill:none;stroke:#231f20;stroke-width:0.72000003;stroke-linecap:butt;stroke-linejoin:miter;stroke-miterlimit:4;stroke-dasharray:none;stroke-opacity:1"
         id="path300"
         inkscape:connector-curvature="0" /><path
         d="m 310.278,530.741 16.899,0.528"
         style="fill:none;stroke:#231f20;stroke-width:0.72000003;stroke-linecap:butt;stroke-linejoin:miter;stroke-miterlimit:4;stroke-dasharray:none;stroke-opacity:1"
         id="path304"
         inkscape:connector-curvature="0" /><path
         d="m 324.712,532.328 c 8.658,-3.413 17.597,-4.901 25.876,-4.668"
         style="fill:none;stroke:#231f20;stroke-width:0.72000003;stroke-linecap:butt;stroke-linejoin:miter;stroke-miterlimit:4;stroke-dasharray:none;stroke-opacity:1"
         id="path308"
         inkscape:connector-curvature="0" /><path
         d="m 324.712,532.324 23.415,1.85 12.406,-2.289 -5.72,-3.346"
         style="fill:none;stroke:#231f20;stroke-width:0.72000003;stroke-linecap:butt;stroke-linejoin:miter;stroke-miterlimit:4;stroke-dasharray:none;stroke-opacity:1"
         id="path312"
         inkscape:connector-curvature="0" /><path
         d="m 305.349,521.497 c 4.229,-0.328 8.416,-0.376 12.056,-0.177"
         style="fill:none;stroke:#231f20;stroke-width:0.72000003;stroke-linecap:butt;stroke-linejoin:miter;stroke-miterlimit:4;stroke-dasharray:none;stroke-opacity:1"
         id="path316"
         inkscape:connector-curvature="0" /><path
         d="m 301.858,525.876 c -2.426,0.845 -4.848,1.703 -7.275,2.548 -0.042,0.015 -0.084,0.027 -0.126,0.042"
         style="fill:none;stroke:#231f20;stroke-width:0.72000003;stroke-linecap:butt;stroke-linejoin:miter;stroke-miterlimit:4;stroke-dasharray:none;stroke-opacity:1"
         id="path320"
         inkscape:connector-curvature="0" /><path
         d="m 325.612,540.307 c 0.008,3.008 -0.057,6.014 -0.055,9.022 0.006,0.5 0.008,1.001 0.067,1.498 0.049,0.206 0.08,0.417 0.148,0.616 0.139,0.374 0.473,0.648 0.838,0.794 0.242,0.108 0.5,0.185 0.756,0.263 0.422,0.015 0.848,-0.003 1.269,0.002 2.026,0.001 4.045,-0.003 6.071,0.001 0.115,0 0.232,0.007 0.342,-0.032 0.351,-0.086 0.705,-0.195 0.994,-0.416 0.271,-0.244 0.392,-0.605 0.508,-0.939 0.048,-0.142 0.082,-0.289 0.125,-0.434 0.017,-0.814 0.005,-1.629 0.015,-2.443 0.016,-2.728 0.033,-5.455 0.047,-8.182"
         style="fill:none;stroke:#231f20;stroke-width:0.72000003;stroke-linecap:butt;stroke-linejoin:miter;stroke-miterlimit:4;stroke-dasharray:none;stroke-opacity:1"
         id="path324"
         inkscape:connector-curvature="0" /><path
         d="m 356.699,572.73 c -1.934,-0.207 -3.867,-0.413 -5.803,-0.599 -1.455,-0.125 -2.943,-0.167 -4.34,-0.642 -0.763,-0.25 -1.505,-0.572 -2.224,-0.928 -0.061,-0.031 -0.154,-0.012 -0.18,-0.09 -0.091,-0.61 -0.08,-1.227 -0.117,-1.839 -0.307,-4.669 -0.608,-9.34 -0.913,-14.009 -0.039,-0.612 -0.112,-1.224 -0.117,-1.839 0.002,-0.068 0.064,-0.107 0.099,-0.157 0.453,-0.692 0.911,-1.393 1.523,-1.955 0.343,-0.312 0.75,-0.543 1.176,-0.722 1.052,-0.501 2.15,-0.914 3.261,-1.273 1.242,-0.395 2.504,-0.747 3.789,-0.975 1.766,-0.334 3.551,-0.553 5.336,-0.744 0.633,-0.064 1.266,-0.141 1.903,-0.18 0.048,-0.002 0.099,-0.003 0.148,-0.008"
         style="fill:none;stroke:#231f20;stroke-width:0.72000003;stroke-linecap:butt;stroke-linejoin:miter;stroke-miterlimit:4;stroke-dasharray:none;stroke-opacity:1"
         id="path328"
         inkscape:connector-curvature="0" /><path
         d="m 492.333,606.242 c -4.346,1.127 -8.688,2.275 -13.026,3.422 -0.073,0.018 -0.147,0.038 -0.221,0.057 l 0.022,-0.017 c -4.325,0.293 -8.649,0.58 -12.981,0.77 -4.691,0.181 -9.385,0.492 -14.085,0.391 -3.766,-0.088 -7.514,-0.546 -11.238,-1.084 -0.162,-0.024 -0.332,-0.033 -0.485,-0.088 -0.064,-0.328 -0.187,-0.668 -0.088,-1.002 0.088,-0.305 0.381,-0.464 0.645,-0.59 0.527,-0.105 1.06,-0.172 1.592,-0.252 11.822,-1.593 23.663,-3.058 35.497,-4.558 0.719,-0.092 1.435,-0.182 2.153,-0.272"
         style="fill:none;stroke:#231f20;stroke-width:0.72000003;stroke-linecap:butt;stroke-linejoin:miter;stroke-miterlimit:4;stroke-dasharray:none;stroke-opacity:1"
         id="path332"
         inkscape:connector-curvature="0" /><path
         d="m 470.873,610.386 c -0.365,0.555 -0.607,1.176 -0.982,1.726 -0.299,0.406 -0.668,0.762 -1.084,1.05 -0.323,0.216 -0.692,0.339 -1.045,0.49 -0.383,0.149 -0.791,0.233 -1.184,0.341 -2.051,0.504 -4.129,0.901 -6.199,1.32 -2.657,0.508 -5.314,1.048 -8.001,1.38 -0.643,0.076 -1.289,0.114 -1.936,0.177 -0.674,0.06 -1.353,0.037 -2.013,-0.109 -1.452,-0.298 -2.852,-0.859 -4.071,-1.705 -0.931,-0.643 -1.797,-1.384 -2.57,-2.213 -1.006,-1.095 -1.68,-2.485 -1.965,-3.941 -0.244,-1.288 -0.133,-2.604 -0.043,-3.901 0.033,-0.546 0.141,-1.096 0.41,-1.581 0.248,-0.477 0.606,-0.904 1.061,-1.197 0.553,-0.376 1.164,-0.655 1.689,-1.068 0.668,-0.508 1.237,-1.13 1.817,-1.729 0.469,-0.479 0.908,-0.989 1.394,-1.449 0.086,-0.075 0.172,-0.159 0.291,-0.169 0.127,-0.024 0.246,0.034 0.368,0.044 2.183,0.497 4.349,1.061 6.519,1.625 2.844,0.751 5.685,1.52 8.44,2.558 2.088,0.776 4.155,1.614 6.202,2.504"
         style="fill:none;stroke:#231f20;stroke-width:0.72000003;stroke-linecap:butt;stroke-linejoin:miter;stroke-miterlimit:4;stroke-dasharray:none;stroke-opacity:1"
         id="path336"
         inkscape:connector-curvature="0" /><path
         d="m 477.385,601.876 c -3.035,-0.78 -6.041,-1.67 -9.1,-2.358 -1.187,-0.241 -2.349,-0.586 -3.537,-0.83 -0.594,-0.108 -1.28,-0.137 -1.78,0.26 -0.488,0.363 -0.824,0.889 -1.098,1.425 -0.031,0.046 0.006,0.151 -0.072,0.154 -0.162,-0.051 -0.268,-0.193 -0.396,-0.292 -1.051,-0.766 -2.09,-1.547 -3.145,-2.305 -0.33,-0.176 -0.516,-0.514 -0.766,-0.776 -3.459,-4.27 -6.968,-8.501 -10.447,-12.756 -4.021,-4.903 -8.048,-9.809 -12.071,-14.709 -0.613,-0.746 -1.326,-1.414 -1.836,-2.241 l -0.004,-0.084 c 0.088,-0.079 0.211,-0.104 0.309,-0.175 0.773,-0.655 1.548,-1.311 2.322,-1.967 0.101,-0.086 0.17,-0.221 0.306,-0.259 0.483,-0.118 0.979,-0.119 1.467,-0.176 4.214,-0.505 8.427,-1.014 12.638,-1.517"
         style="fill:none;stroke:#231f20;stroke-width:0.72000003;stroke-linecap:butt;stroke-linejoin:miter;stroke-miterlimit:4;stroke-dasharray:none;stroke-opacity:1"
         id="path340"
         inkscape:connector-curvature="0" /><path
         d="m 436.334,564.823 -17.493,2.035 -17.5,1.97 -17.505,1.908"
         style="fill:none;stroke:#231f20;stroke-width:0.72000003;stroke-linecap:butt;stroke-linejoin:miter;stroke-miterlimit:4;stroke-dasharray:none;stroke-opacity:1"
         id="path344"
         inkscape:connector-curvature="0" /><path
         d="m 317.159,516.797 c -2.192,1.562 -4.956,1.725 -7.271,0.653"
         style="fill:none;stroke:#231f20;stroke-width:0.72000003;stroke-linecap:butt;stroke-linejoin:miter;stroke-miterlimit:4;stroke-dasharray:none;stroke-opacity:1"
         id="path348"
         inkscape:connector-curvature="0" /><path
         d="m 317.026,516.775 c 0.17,0.02 0.344,0.021 0.514,0.007 0.175,-0.007 0.355,-0.022 0.523,0.034 0.072,0.032 0.15,0.066 0.199,0.131 l 0.02,0.053 c 0.004,0.045 0.006,0.089 0.008,0.134 -0.008,0.224 -0.088,0.434 -0.151,0.645 -0.244,0.683 -0.535,1.346 -0.832,2.007 -0.158,0.34 -0.314,0.681 -0.474,1.021"
         style="fill:none;stroke:#231f20;stroke-width:0.72000003;stroke-linecap:butt;stroke-linejoin:miter;stroke-miterlimit:4;stroke-dasharray:none;stroke-opacity:1"
         id="path352"
         inkscape:connector-curvature="0" /><path
         d="m 165.036,567.234 -7.078,-7.727"
         style="fill:none;stroke:#231f20;stroke-width:0.72000003;stroke-linecap:butt;stroke-linejoin:miter;stroke-miterlimit:4;stroke-dasharray:none;stroke-opacity:1"
         id="path356"
         inkscape:connector-curvature="0" /><path
         d="m 162.63,514.847 c 0,0.993 -0.804,1.799 -1.798,1.799 -0.993,0 -1.798,-0.806 -1.798,-1.799 0,-0.992 0.805,-1.797 1.798,-1.797 0.994,0 1.798,0.805 1.798,1.797"
         style="fill:none;stroke:#231f20;stroke-width:0.72000003;stroke-linecap:butt;stroke-linejoin:miter;stroke-miterlimit:4;stroke-dasharray:none;stroke-opacity:1"
         id="path640"
         inkscape:connector-curvature="0" /><path
         d="m 314.159,518.04 -0.936,-0.912 c -3.119,-4.952 5.833,-6.478 4.532,-0.775 l -0.037,0.076"
         style="fill:none;stroke:#231f20;stroke-width:0.72000003;stroke-linecap:butt;stroke-linejoin:miter;stroke-miterlimit:4;stroke-dasharray:none;stroke-opacity:1"
         id="path644"
         inkscape:connector-curvature="0" /><path
         d="m 370.288,546.621 0.428,-0.002 c 11.052,-0.011 23.061,2.645 34.065,3.947 l 4.404,0.641 0.015,0.133 0.039,0.319 0.043,0.381 0.031,0.327 0.002,0.15 -0.027,0.013 -0.033,0.004 -0.033,-0.008 -0.028,-0.007 -0.009,-0.002 0.857,0.055 2.047,0.129 4.488,0.287 0.858,0.053 -0.729,0.306 -3.846,1.613 -1.797,0.752 -0.832,0.344 -0.113,0.03 -0.088,0.007 -0.07,0.005 -0.063,0.024 -0.058,0.065 0,0.832 0.092,1.86 0.129,2.189 0.164,2.563 -1.7,0.425 -24.227,6.112"
         style="fill:none;stroke:#231f20;stroke-width:0.72000003;stroke-linecap:butt;stroke-linejoin:miter;stroke-miterlimit:4;stroke-dasharray:none;stroke-opacity:1"
         id="path648"
         inkscape:connector-curvature="0" /><path
         d="m 161.062,531.411 -6.568,0.828"
         style="fill:none;stroke:#231f20;stroke-width:0.72000003;stroke-linecap:butt;stroke-linejoin:miter;stroke-miterlimit:4;stroke-dasharray:none;stroke-opacity:1"
         id="path820"
         inkscape:connector-curvature="0" /></g></g></svg>